<svg width="30" height="29" viewBox="0 0 30 29" fill="none" xmlns="http://www.w3.org/2000/svg">
<path d="M29.9173 15.8498L16.0095 0.4441C15.8838 0.304698 15.7284 0.192899 15.5538 0.116277C15.3792 0.0396548 15.1895 0 14.9975 0C14.8056 0 14.6159 0.0396548 14.4413 0.116277C14.2667 0.192899 14.1113 0.304698 13.9856 0.4441L0.081965 15.8498C0.0399511 15.8962 0.0127092 15.9533 0.00348469 16.0142C-0.00573982 16.0751 0.00344163 16.1372 0.0299353 16.1933C0.0564289 16.2493 0.0991182 16.2968 0.152918 16.3302C0.206718 16.3635 0.269362 16.3813 0.333386 16.3814H3.72757C3.92033 16.3814 4.10471 16.3009 4.23461 16.1599L13.4073 5.9982V28.6778C13.4073 28.855 13.5581 29 13.7425 29H16.2567C16.4411 29 16.592 28.855 16.592 28.6778V5.9982L25.7646 16.1599C25.8904 16.3009 26.0747 16.3814 26.2717 16.3814H29.6659C29.9508 16.3814 30.1059 16.0592 29.9173 15.8498Z" fill="#33BD52"/>
</svg>
